<?xml version="1.0" encoding="iso-8859-1"?>
<!-- Generator: Adobe Illustrator 18.0.0, SVG Export Plug-In . SVG Version: 6.00 Build 0)  -->
<!DOCTYPE svg PUBLIC "-//W3C//DTD SVG 1.1//EN" "http://www.w3.org/Graphics/SVG/1.1/DTD/svg11.dtd">
<svg version="1.1" id="Capa_1" xmlns="http://www.w3.org/2000/svg" xmlns:xlink="http://www.w3.org/1999/xlink" x="0px" y="0px"
	 viewBox="0 0 296 296" style="enable-background:new 0 0 296 296;" xml:space="preserve">
<path d="M94.061,271.915c2.832-0.062,69.59-1.974,89.994-6.276c6.832-1.44,10.294-0.979,11.706,0.315
	c3.615,3.313,5.219,5.961,9.236,5.961h80.867c5.597,0,10.136-4.538,10.136-10.136V34.221c0-3.474-1.78-6.707-4.715-8.565
	c-2.936-1.857-6.619-2.084-9.76-0.595c-0.22,0.104-22.362,10.408-56.326,10.409c-20.073,0.001-40.089-3.62-59.493-10.761
	c-3.365-1.237-7.138-0.606-9.915,1.664c-2.778,2.27-4.148,5.839-3.605,9.385c4.732,30.848,6.152,85.875-10.186,102.213
	c-18.773,18.775-74.889,39.206-101.857,49.025c-8.813,3.209-14.636,5.328-17.637,6.752c-20.329,9.641-28.373,36.409-17.932,59.67
	c1.025,2.285,2.861,4.109,5.152,5.12c1.202,0.53,29.954,13.376,74.718,13.376H94.061z M155.15,153.433
	c1.795-1.795,4.645-4.953,6.19-7.204l6.168,2.548c1.266,0.524,2.576,0.771,3.866,0.771c3.981,0,7.757-2.361,9.372-6.268
	c2.138-5.174-0.324-11.101-5.497-13.238l-5.429-2.243c1.101-3.63,2.045-7.536,2.832-11.718l2.457,1.015
	c1.266,0.523,2.576,0.77,3.865,0.77c3.981,0,7.758-2.362,9.373-6.27c2.136-5.174-0.326-11.101-5.499-13.238l-7.703-3.181
	c0.288-4.695,0.437-9.627,0.447-14.795c19.068,5.582,36.559,7.579,51.807,7.579c20.873,0,37.542-3.731,48.33-7.092v66.851
	c-13.156,1.304-36.062,6.057-52.633,22.951c-12.749,12.998-19.196,30.398-19.251,51.766c-8.232,2.194-16.774,5.082-25.633,8.9
	c-30.682,13.225-62.229,19.931-93.766,19.931c-2.049,0-4.059-0.03-6.034-0.086c4.964-26.69-1.849-43.529-9.139-53.351
	c3.699-1.405,7.515-2.881,11.404-4.421l7.363,8.941c2.004,2.433,4.906,3.692,7.83,3.692c2.268,0,4.55-0.757,6.438-2.311
	c4.321-3.559,4.939-9.947,1.381-14.268l-3.432-4.168c2.607-1.136,5.204-2.293,7.78-3.472l10.284,7.926
	c1.843,1.42,4.02,2.107,6.18,2.107c3.036,0,6.039-1.358,8.035-3.948c3.417-4.434,2.592-10.798-1.841-14.216l-2.453-1.891
	c3.111-1.692,6.114-3.408,8.967-5.147l9.519,5.286c1.197,0.666,2.471,1.062,3.752,1.21c3.955,0.458,7.977-1.454,10.03-5.15
	c2.717-4.894,0.954-11.065-3.94-13.782L155.15,153.433z M224.229,218.216c0.788-13.868,5.224-25.032,13.253-33.263
	c11.399-11.685,27.883-15.542,38.246-16.813v47.565c-3.398-0.027-6.817-0.053-10.263-0.053
	C252.888,215.652,239.143,215.974,224.229,218.216z M225.2,55.742c21.629-0.001,39.146-3.748,50.529-7.118v10.81
	c-12.789,4.838-51.234,16.024-100.833-0.512c-0.237-3.695-0.514-7.133-0.799-10.219C190.888,53.381,208.015,55.743,225.2,55.742z
	 M48.84,205.403c4.44,3.678,15.143,15.844,9.205,44.234c-17.681-2.209-30.424-6.114-36.37-8.214
	c-3.989-12.951,1.34-25.48,9.517-29.358C33.335,211.048,41.465,208.088,48.84,205.403z M210.023,251.643
	c-2.55-2.525-6.387-5.036-12.007-6.255c25.039-8.645,46.98-9.465,67.449-9.465c3.441,0,6.854,0.027,10.245,0.053
	c0.006,0,0.013,0,0.019,0v15.666H210.023z"/>
<g>
</g>
<g>
</g>
<g>
</g>
<g>
</g>
<g>
</g>
<g>
</g>
<g>
</g>
<g>
</g>
<g>
</g>
<g>
</g>
<g>
</g>
<g>
</g>
<g>
</g>
<g>
</g>
<g>
</g>
</svg>
