<?xml version="1.0" encoding="utf-8"?>
<!-- Generator: Adobe Illustrator 22.1.0, SVG Export Plug-In . SVG Version: 6.00 Build 0)  -->
<svg version="1.1" id="Capa_1" xmlns="http://www.w3.org/2000/svg" xmlns:xlink="http://www.w3.org/1999/xlink" x="0px" y="0px"
	 width="50px" height="49.5px" viewBox="0 0 50 49.5" style="enable-background:new 0 0 50 49.5;" xml:space="preserve">
<g>
	<g>
		<path d="M25,26.2c6.2,0,11.2-5.9,11.2-13.1C36.2,3.1,31.2,0,25,0c-6.2,0-11.2,3.1-11.2,13.1C13.8,20.4,18.8,26.2,25,26.2z"/>
		<path d="M49.8,45.6l-5.7-12.7c-0.3-0.6-0.7-1.1-1.3-1.4L34,26.9c-0.2-0.1-0.4-0.1-0.6,0.1C31,28.8,28,29.8,25,29.8
			c-3,0-6-1-8.4-2.9c-0.2-0.1-0.4-0.2-0.6-0.1l-8.8,4.6c-0.6,0.3-1,0.8-1.3,1.4L0.2,45.6c-0.4,0.9-0.3,1.9,0.2,2.7
			c0.5,0.8,1.4,1.3,2.4,1.3h44.3c1,0,1.8-0.5,2.4-1.3C50.1,47.4,50.1,46.4,49.8,45.6z"/>
	</g>
</g>
</svg>
